<svg xmlns="http://www.w3.org/2000/svg" viewBox="0 0 1200 500"><rect width="1200" height="500" fill="white"/><line x1="65" x2="1180" y1="455.0" y2="455.0" stroke="#ddd"/><text x="57" y="459.0" text-anchor="end" font-size="12">0%</text><line x1="65" x2="1180" y1="350.0" y2="350.0" stroke="#ddd"/><text x="57" y="354.0" text-anchor="end" font-size="12">25%</text><line x1="65" x2="1180" y1="245.0" y2="245.0" stroke="#ddd"/><text x="57" y="249.0" text-anchor="end" font-size="12">50%</text><line x1="65" x2="1180" y1="140.0" y2="140.0" stroke="#ddd"/><text x="57" y="144.0" text-anchor="end" font-size="12">75%</text><line x1="65" x2="1180" y1="35.0" y2="35.0" stroke="#ddd"/><text x="57" y="39.0" text-anchor="end" font-size="12">100%</text><line x1="90.15037593984962" x2="90.15037593984962" y1="35" y2="455" stroke="#bbb" stroke-dasharray="2,3"/><line x1="123.68421052631578" x2="123.68421052631578" y1="35" y2="455" stroke="#bbb" stroke-dasharray="2,3"/><line x1="182.36842105263156" x2="182.36842105263156" y1="35" y2="455" stroke="#bbb" stroke-dasharray="2,3"/><line x1="249.4360902255639" x2="249.4360902255639" y1="35" y2="455" stroke="#bbb" stroke-dasharray="2,3"/><line x1="618.3082706766917" x2="618.3082706766917" y1="35" y2="455" stroke="#bbb" stroke-dasharray="2,3"/><line x1="702.1428571428571" x2="702.1428571428571" y1="35" y2="455" stroke="#bbb" stroke-dasharray="2,3"/><line x1="727.2932330827068" x2="727.2932330827068" y1="35" y2="455" stroke="#bbb" stroke-dasharray="2,3"/><line x1="744.0601503759399" x2="744.0601503759399" y1="35" y2="455" stroke="#bbb" stroke-dasharray="2,3"/><line x1="760.827067669173" x2="760.827067669173" y1="35" y2="455" stroke="#bbb" stroke-dasharray="2,3"/><line x1="827.8947368421053" x2="827.8947368421053" y1="35" y2="455" stroke="#bbb" stroke-dasharray="2,3"/><line x1="878.1954887218045" x2="878.1954887218045" y1="35" y2="455" stroke="#bbb" stroke-dasharray="2,3"/><line x1="936.8796992481203" x2="936.8796992481203" y1="35" y2="455" stroke="#bbb" stroke-dasharray="2,3"/><line x1="978.796992481203" x2="978.796992481203" y1="35" y2="455" stroke="#bbb" stroke-dasharray="2,3"/><line x1="1071.015037593985" x2="1071.015037593985" y1="35" y2="455" stroke="#bbb" stroke-dasharray="2,3"/><line x1="1129.6992481203008" x2="1129.6992481203008" y1="35" y2="455" stroke="#bbb" stroke-dasharray="2,3"/><path d="M 65.0 35.0 H 73.38345864661655 V 35.0 H 81.76691729323308 V 35.0 H 90.15037593984962 V 35.0 H 98.53383458646616 V 35.0 H 106.91729323308272 V 35.0 H 115.30075187969925 V 35.0 H 123.68421052631578 V 35.0 H 132.0676691729323 V 35.0 H 140.45112781954887 V 35.0 H 148.83458646616543 V 35.0 H 157.21804511278197 V 35.0 H 165.6015037593985 V 35.0 H 173.98496240601503 V 35.0 H 182.36842105263156 V 35.0 H 190.75187969924812 V 35.0 H 199.13533834586465 V 35.0 H 207.5187969924812 V 35.0 H 215.90225563909775 V 35.0 H 224.28571428571428 V 35.0 H 232.66917293233084 V 35.0 H 241.05263157894737 V 35.0 H 249.4360902255639 V 35.0 H 257.81954887218046 V 35.0 H 266.203007518797 V 35.0 H 274.5864661654135 V 35.0 H 282.96992481203006 V 35.0 H 291.3533834586466 V 35.0 H 299.7368421052631 V 35.0 H 308.1203007518797 V 35.0 H 316.50375939849624 V 35.0 H 324.8872180451128 V 35.0 H 333.2706766917293 V 35.0 H 341.65413533834584 V 35.0 H 350.0375939849624 V 35.0 H 358.42105263157896 V 35.0 H 366.8045112781955 V 35.0 H 375.187969924812 V 35.0 H 383.57142857142856 V 35.0 H 391.9548872180451 V 35.0 H 400.3383458646617 V 35.0 H 408.7218045112782 V 35.0 H 417.10526315789474 V 35.0 H 425.4887218045113 V 35.0 H 433.8721804511278 V 35.0 H 442.25563909774434 V 35.0 H 450.6390977443609 V 35.0 H 459.02255639097746 V 35.0 H 467.406015037594 V 35.0 H 475.7894736842105 V 35.0 H 484.17293233082705 V 35.0 H 492.5563909774436 V 35.0 H 500.9398496240602 V 35.0 H 509.3233082706767 V 35.0 H 517.7067669172932 V 35.0 H 526.0902255639098 V 35.0 H 534.4736842105262 V 35.0 H 542.8571428571429 V 35.0 H 551.2406015037594 V 35.0 H 559.624060150376 V 35.0 H 568.0075187969925 V 35.0 H 576.390977443609 V 35.0 H 584.7744360902255 V 35.0 H 593.1578947368421 V 35.0 H 601.5413533834586 V 44.63900000000001 H 609.9248120300751 V 44.63900000000001 H 618.3082706766917 V 44.63900000000001 H 626.6917293233083 V 44.63900000000001 H 635.0751879699249 V 44.63900000000001 H 643.4586466165414 V 44.63900000000001 H 651.8421052631579 V 44.63900000000001 H 660.2255639097745 V 44.63900000000001 H 668.609022556391 V 44.63900000000001 H 676.9924812030075 V 44.63900000000001 H 685.375939849624 V 44.63900000000001 H 693.7593984962406 V 44.63900000000001 H 702.1428571428571 V 44.63900000000001 H 710.5263157894736 V 44.63900000000001 H 718.9097744360902 V 44.63900000000001 H 727.2932330827068 V 44.63900000000001 H 735.6766917293234 V 44.63900000000001 H 744.0601503759399 V 44.63900000000001 H 752.4436090225564 V 44.63900000000001 H 760.827067669173 V 44.63900000000001 H 769.2105263157895 V 46.01660000000002 H 777.593984962406 V 46.01660000000002 H 785.9774436090225 V 47.39419999999997 H 794.3609022556391 V 47.39419999999997 H 802.7443609022556 V 47.39419999999997 H 811.1278195488721 V 47.39419999999997 H 819.5112781954887 V 47.39419999999997 H 827.8947368421053 V 47.39419999999997 H 836.2781954887218 V 47.39419999999997 H 844.6616541353384 V 47.39419999999997 H 853.0451127819549 V 47.39419999999997 H 861.4285714285714 V 47.39419999999997 H 869.812030075188 V 47.39419999999997 H 878.1954887218045 V 47.39419999999997 H 886.578947368421 V 47.39419999999997 H 894.9624060150376 V 47.39419999999997 H 903.3458646616541 V 47.39419999999997 H 911.7293233082706 V 47.39419999999997 H 920.1127819548872 V 47.39419999999997 H 928.4962406015038 V 47.39419999999997 H 936.8796992481203 V 47.39419999999997 H 945.2631578947369 V 47.39419999999997 H 953.6466165413534 V 47.39419999999997 H 962.0300751879699 V 47.39419999999997 H 970.4135338345865 V 47.39419999999997 H 978.796992481203 V 47.39419999999997 H 987.1804511278195 V 47.39419999999997 H 995.5639097744361 V 47.39419999999997 H 1003.9473684210526 V 47.39419999999997 H 1012.3308270676691 V 50.1494 H 1020.7142857142857 V 51.52279999999999 H 1029.0977443609022 V 51.52279999999999 H 1037.4812030075188 V 51.52279999999999 H 1045.8646616541355 V 51.52279999999999 H 1054.248120300752 V 51.52279999999999 H 1062.6315789473683 V 55.65560000000003 H 1071.015037593985 V 55.65560000000003 H 1079.3984962406016 V 55.65560000000003 H 1087.781954887218 V 55.65560000000003 H 1096.1654135338347 V 55.65560000000003 H 1104.548872180451 V 55.65560000000003 H 1112.9323308270677 V 55.65560000000003 H 1121.3157894736842 V 55.65560000000003 H 1129.6992481203008 V 55.65560000000003 H 1138.0827067669172 V 55.65560000000003 H 1146.4661654135339 V 55.65560000000003 H 1154.8496240601503 V 55.65560000000003 H 1163.233082706767 V 55.65560000000003 H 1171.6165413533834 V 55.65560000000003 H 1180.0 V 55.65560000000003" fill="none" stroke="#2563eb" stroke-width="2.5"/><path d="M 65.0 35.0 H 73.38345864661655 V 35.0 H 81.76691729323308 V 35.0 H 90.15037593984962 V 35.0 H 98.53383458646616 V 35.0 H 106.91729323308272 V 35.0 H 115.30075187969925 V 35.0 H 123.68421052631578 V 35.0 H 132.0676691729323 V 35.0 H 140.45112781954887 V 35.0 H 148.83458646616543 V 35.0 H 157.21804511278197 V 35.0 H 165.6015037593985 V 35.0 H 173.98496240601503 V 35.0 H 182.36842105263156 V 35.0 H 190.75187969924812 V 35.0 H 199.13533834586465 V 35.0 H 207.5187969924812 V 35.0 H 215.90225563909775 V 35.0 H 224.28571428571428 V 35.0 H 232.66917293233084 V 35.0 H 241.05263157894737 V 35.0 H 249.4360902255639 V 35.0 H 257.81954887218046 V 35.0 H 266.203007518797 V 35.0 H 274.5864661654135 V 35.0 H 282.96992481203006 V 35.0 H 291.3533834586466 V 35.0 H 299.7368421052631 V 35.0 H 308.1203007518797 V 35.0 H 316.50375939849624 V 35.0 H 324.8872180451128 V 35.0 H 333.2706766917293 V 35.0 H 341.65413533834584 V 35.0 H 350.0375939849624 V 35.0 H 358.42105263157896 V 35.0 H 366.8045112781955 V 35.0 H 375.187969924812 V 35.0 H 383.57142857142856 V 35.0 H 391.9548872180451 V 35.0 H 400.3383458646617 V 35.0 H 408.7218045112782 V 35.0 H 417.10526315789474 V 35.0 H 425.4887218045113 V 35.0 H 433.8721804511278 V 35.0 H 442.25563909774434 V 35.0 H 450.6390977443609 V 35.0 H 459.02255639097746 V 35.0 H 467.406015037594 V 35.0 H 475.7894736842105 V 35.0 H 484.17293233082705 V 35.0 H 492.5563909774436 V 35.0 H 500.9398496240602 V 35.0 H 509.3233082706767 V 35.0 H 517.7067669172932 V 35.0 H 526.0902255639098 V 35.0 H 534.4736842105262 V 35.0 H 542.8571428571429 V 35.0 H 551.2406015037594 V 35.0 H 559.624060150376 V 35.0 H 568.0075187969925 V 35.0 H 576.390977443609 V 35.0 H 584.7744360902255 V 35.0 H 593.1578947368421 V 35.0 H 601.5413533834586 V 45.873799999999996 H 609.9248120300751 V 45.873799999999996 H 618.3082706766917 V 45.873799999999996 H 626.6917293233083 V 45.873799999999996 H 635.0751879699249 V 45.873799999999996 H 643.4586466165414 V 45.873799999999996 H 651.8421052631579 V 45.873799999999996 H 660.2255639097745 V 45.873799999999996 H 668.609022556391 V 45.873799999999996 H 676.9924812030075 V 45.873799999999996 H 685.375939849624 V 45.873799999999996 H 693.7593984962406 V 45.873799999999996 H 702.1428571428571 V 45.873799999999996 H 710.5263157894736 V 45.873799999999996 H 718.9097744360902 V 45.873799999999996 H 727.2932330827068 V 45.873799999999996 H 735.6766917293234 V 45.873799999999996 H 744.0601503759399 V 45.873799999999996 H 752.4436090225564 V 45.873799999999996 H 760.827067669173 V 45.873799999999996 H 769.2105263157895 V 45.873799999999996 H 777.593984962406 V 45.873799999999996 H 785.9774436090225 V 45.873799999999996 H 794.3609022556391 V 45.873799999999996 H 802.7443609022556 V 45.873799999999996 H 811.1278195488721 V 45.873799999999996 H 819.5112781954887 V 45.873799999999996 H 827.8947368421053 V 45.873799999999996 H 836.2781954887218 V 45.873799999999996 H 844.6616541353384 V 45.873799999999996 H 853.0451127819549 V 45.873799999999996 H 861.4285714285714 V 45.873799999999996 H 869.812030075188 V 45.873799999999996 H 878.1954887218045 V 45.873799999999996 H 886.578947368421 V 45.873799999999996 H 894.9624060150376 V 45.873799999999996 H 903.3458646616541 V 45.873799999999996 H 911.7293233082706 V 45.873799999999996 H 920.1127819548872 V 45.873799999999996 H 928.4962406015038 V 45.873799999999996 H 936.8796992481203 V 45.873799999999996 H 945.2631578947369 V 45.873799999999996 H 953.6466165413534 V 45.873799999999996 H 962.0300751879699 V 45.873799999999996 H 970.4135338345865 V 45.873799999999996 H 978.796992481203 V 45.873799999999996 H 987.1804511278195 V 45.873799999999996 H 995.5639097744361 V 45.873799999999996 H 1003.9473684210526 V 45.873799999999996 H 1012.3308270676691 V 45.873799999999996 H 1020.7142857142857 V 45.873799999999996 H 1029.0977443609022 V 45.873799999999996 H 1037.4812030075188 V 45.873799999999996 H 1045.8646616541355 V 45.873799999999996 H 1054.248120300752 V 45.873799999999996 H 1062.6315789473683 V 48.591200000000015 H 1071.015037593985 V 48.591200000000015 H 1079.3984962406016 V 48.591200000000015 H 1087.781954887218 V 48.591200000000015 H 1096.1654135338347 V 48.591200000000015 H 1104.548872180451 V 48.591200000000015 H 1112.9323308270677 V 48.591200000000015 H 1121.3157894736842 V 48.591200000000015 H 1129.6992481203008 V 48.591200000000015 H 1138.0827067669172 V 48.591200000000015 H 1146.4661654135339 V 48.591200000000015 H 1154.8496240601503 V 48.591200000000015 H 1163.233082706767 V 48.591200000000015 H 1171.6165413533834 V 48.591200000000015 H 1180.0 V 48.591200000000015" fill="none" stroke="#d97706" stroke-width="2.5"/><text x="65" y="20" font-size="18">Cumulative test survival over 133 commits</text><text x="1180" y="490" text-anchor="end" font-size="12">Commit number</text><text x="75" y="55" fill="#2563eb">LLM S</text><text x="160" y="55" fill="#d97706">Developer subtests</text></svg>
